# 3ds Max Wavefront OBJ Exporter v0.97b - (c)2007 guruware
# File Created: 17.04.2016 15:25:29

#
# object Plane001
#

v  -29.3981 0.0000 29.3981
v  29.3981 0.0000 29.3981
v  29.3981 0.0000 -29.3981
v  -29.3981 0.0000 -29.3981
# 4 vertices

vn 0.0000 1.0000 -0.0000
# 1 vertex normals

vt 0.0000 0.0000 0.5000
vt 1.0000 0.0000 0.5000
vt 1.0000 1.0000 0.5000
vt 0.0000 1.0000 0.5000
# 4 texture coords

g Plane001
s 1
f 1/1/1 2/2/1 3/3/1 4/4/1 
# 1 polygons

#
# object Cylinder___Ext
#

v  19.6850 0.0000 -0.0000
v  18.1866 0.0000 -7.5331
v  18.1866 7.8740 -7.5331
v  19.6850 7.8740 -0.0000
v  13.9194 0.0000 -13.9194
v  13.9194 7.8740 -13.9194
v  7.5331 0.0000 -18.1866
v  7.5331 7.8740 -18.1866
v  -0.0000 0.0000 -19.6850
v  -0.0000 7.8740 -19.6850
v  -7.5331 0.0000 -18.1866
v  -7.5331 7.8740 -18.1866
v  -13.9194 0.0000 -13.9194
v  -13.9194 7.8740 -13.9194
v  -18.1866 0.0000 -7.5331
v  -18.1866 7.8740 -7.5331
v  -19.6850 0.0000 -0.0000
v  -19.6850 7.8740 -0.0000
v  -18.1866 0.0000 7.5331
v  -18.1866 7.8740 7.5331
v  -13.9194 0.0000 13.9194
v  -13.9194 7.8740 13.9194
v  -7.5331 0.0000 18.1866
v  -7.5331 7.8740 18.1866
v  0.0000 0.0000 19.6850
v  0.0000 7.8740 19.6850
v  7.5331 0.0000 18.1866
v  7.5331 7.8740 18.1866
v  13.9194 0.0000 13.9194
v  13.9194 7.8740 13.9194
v  18.1866 0.0000 7.5331
v  18.1866 7.8740 7.5331
# 32 vertices

vn 1.0000 0.0000 -0.0000
vn 0.9239 0.0000 -0.3827
vn 0.7071 0.0000 -0.7071
vn 0.3827 0.0000 -0.9239
vn -0.0000 0.0000 -1.0000
vn 0.0000 0.0000 -1.0000
vn -0.3827 0.0000 -0.9239
vn -0.7071 0.0000 -0.7071
vn -0.9239 0.0000 -0.3827
vn -1.0000 0.0000 -0.0000
vn -0.9239 0.0000 0.3827
vn -0.7071 0.0000 0.7071
vn -0.3827 0.0000 0.9239
vn 0.0000 0.0000 1.0000
vn 0.3827 0.0000 0.9239
vn 0.7071 0.0000 0.7071
vn 0.9239 0.0000 0.3827
# 17 vertex normals

vt 0.7500 0.0000 1.0000
vt 0.8125 0.0000 1.0000
vt 0.8125 1.0000 1.0000
vt 0.7500 1.0000 1.0000
vt 0.8750 0.0000 1.0000
vt 0.8750 1.0000 1.0000
vt 0.9375 0.0000 1.0000
vt 0.9375 1.0000 1.0000
vt 1.0000 0.0000 1.0000
vt 1.0000 1.0000 1.0000
vt 1.0625 0.0000 1.0000
vt 1.0625 1.0000 1.0000
vt 0.0625 0.0000 1.0000
vt 0.1250 0.0000 1.0000
vt 0.1250 1.0000 1.0000
vt 0.0625 1.0000 1.0000
vt 0.1875 0.0000 1.0000
vt 0.1875 1.0000 1.0000
vt 0.2500 0.0000 1.0000
vt 0.2500 1.0000 1.0000
vt 0.3125 0.0000 1.0000
vt 0.3125 1.0000 1.0000
vt 0.3750 0.0000 1.0000
vt 0.3750 1.0000 1.0000
vt 0.4375 0.0000 1.0000
vt 0.4375 1.0000 1.0000
vt 0.5000 0.0000 1.0000
vt 0.5000 1.0000 1.0000
vt 0.5625 0.0000 1.0000
vt 0.5625 1.0000 1.0000
vt 0.6250 0.0000 1.0000
vt 0.6250 1.0000 1.0000
vt 0.6875 0.0000 1.0000
vt 0.6875 1.0000 1.0000
# 34 texture coords

g Cylinder___Ext
s 8
f 5/5/2 6/6/3 7/7/3 8/8/2 
f 6/6/3 9/9/4 10/10/4 7/7/3 
f 9/9/4 11/11/5 12/12/5 10/10/4 
f 11/11/5 13/13/6 14/14/7 12/12/5 
f 13/13/6 15/15/8 16/16/8 14/14/7 
f 15/17/8 17/18/9 18/19/9 16/20/8 
f 17/18/9 19/21/10 20/22/10 18/19/9 
f 19/21/10 21/23/11 22/24/11 20/22/10 
f 21/23/11 23/25/12 24/26/12 22/24/11 
f 23/25/12 25/27/13 26/28/13 24/26/12 
f 25/27/13 27/29/14 28/30/14 26/28/13 
f 27/29/14 29/31/15 30/32/15 28/30/14 
f 29/31/15 31/33/16 32/34/16 30/32/15 
f 31/33/16 33/35/17 34/36/17 32/34/16 
f 33/35/17 35/37/18 36/38/18 34/36/17 
f 35/37/18 5/5/2 8/8/2 36/38/18 
# 16 polygons

#
# object Cylinder___Int
#

v  19.6850 0.0000 -0.0000
v  19.6850 7.8740 -0.0000
v  18.1866 7.8740 -7.5331
v  18.1866 0.0000 -7.5331
v  13.9194 7.8740 -13.9194
v  13.9194 0.0000 -13.9194
v  7.5331 7.8740 -18.1866
v  7.5331 0.0000 -18.1866
v  -0.0000 7.8740 -19.6850
v  -0.0000 0.0000 -19.6850
v  -7.5331 7.8740 -18.1866
v  -7.5331 0.0000 -18.1866
v  -13.9194 7.8740 -13.9194
v  -13.9194 0.0000 -13.9194
v  -18.1866 7.8740 -7.5331
v  -18.1866 0.0000 -7.5331
v  -19.6850 7.8740 -0.0000
v  -19.6850 0.0000 -0.0000
v  -18.1866 7.8740 7.5331
v  -18.1866 0.0000 7.5331
v  -13.9194 7.8740 13.9194
v  -13.9194 0.0000 13.9194
v  -7.5331 7.8740 18.1866
v  -7.5331 0.0000 18.1866
v  0.0000 7.8740 19.6850
v  0.0000 0.0000 19.6850
v  7.5331 7.8740 18.1866
v  7.5331 0.0000 18.1866
v  13.9194 7.8740 13.9194
v  13.9194 0.0000 13.9194
v  18.1866 7.8740 7.5331
v  18.1866 0.0000 7.5331
# 32 vertices

vn -1.0000 0.0000 0.0000
vn -0.9239 0.0000 0.3827
vn -0.7071 0.0000 0.7071
vn -0.3827 0.0000 0.9239
vn 0.0000 0.0000 1.0000
vn -0.0000 0.0000 1.0000
vn 0.3827 0.0000 0.9239
vn 0.7071 0.0000 0.7071
vn 0.9239 0.0000 0.3827
vn 1.0000 0.0000 0.0000
vn 0.9239 0.0000 -0.3827
vn 0.7071 0.0000 -0.7071
vn 0.3827 0.0000 -0.9239
vn -0.0000 0.0000 -1.0000
vn -0.3827 0.0000 -0.9239
vn -0.7071 0.0000 -0.7071
vn -0.9239 0.0000 -0.3827
# 17 vertex normals

vt 0.7500 0.0000 1.0000
vt 0.7500 1.0000 1.0000
vt 0.8125 1.0000 1.0000
vt 0.8125 0.0000 1.0000
vt 0.8750 1.0000 1.0000
vt 0.8750 0.0000 1.0000
vt 0.9375 1.0000 1.0000
vt 0.9375 0.0000 1.0000
vt 1.0000 1.0000 1.0000
vt 1.0000 0.0000 1.0000
vt 1.0625 1.0000 1.0000
vt 1.0625 0.0000 1.0000
vt 0.0625 0.0000 1.0000
vt 0.0625 1.0000 1.0000
vt 0.1250 1.0000 1.0000
vt 0.1250 0.0000 1.0000
vt 0.1875 1.0000 1.0000
vt 0.1875 0.0000 1.0000
vt 0.2500 1.0000 1.0000
vt 0.2500 0.0000 1.0000
vt 0.3125 1.0000 1.0000
vt 0.3125 0.0000 1.0000
vt 0.3750 1.0000 1.0000
vt 0.3750 0.0000 1.0000
vt 0.4375 1.0000 1.0000
vt 0.4375 0.0000 1.0000
vt 0.5000 1.0000 1.0000
vt 0.5000 0.0000 1.0000
vt 0.5625 1.0000 1.0000
vt 0.5625 0.0000 1.0000
vt 0.6250 1.0000 1.0000
vt 0.6250 0.0000 1.0000
vt 0.6875 1.0000 1.0000
vt 0.6875 0.0000 1.0000
# 34 texture coords

g Cylinder___Int
s 8
f 37/39/19 38/40/19 39/41/20 40/42/20 
f 40/42/20 39/41/20 41/43/21 42/44/21 
f 42/44/21 41/43/21 43/45/22 44/46/22 
f 44/46/22 43/45/22 45/47/23 46/48/24 
f 46/48/24 45/47/23 47/49/25 48/50/25 
f 48/51/25 47/52/25 49/53/26 50/54/26 
f 50/54/26 49/53/26 51/55/27 52/56/27 
f 52/56/27 51/55/27 53/57/28 54/58/28 
f 54/58/28 53/57/28 55/59/29 56/60/29 
f 56/60/29 55/59/29 57/61/30 58/62/30 
f 58/62/30 57/61/30 59/63/31 60/64/31 
f 60/64/31 59/63/31 61/65/32 62/66/32 
f 62/66/32 61/65/32 63/67/33 64/68/33 
f 64/68/33 63/67/33 65/69/34 66/70/34 
f 66/70/34 65/69/34 67/71/35 68/72/35 
f 68/72/35 67/71/35 38/40/19 37/39/19 
# 16 polygons

